# xmcd
#
# Track frame offsets: 
#        150
#        28149
#        54603
#        83768
#        102792
#        125218
#        146229
#        172017
#        201015
#        221886
#
# Disc length: 3289 seconds
#
# Revision: 1
# Processed by: cddbd v1.5.2PL0 Copyright (c) Steve Scherf et al.
# Submitted via: ExactAudioCopy v1.0b3
#
DISCID=9b0cd70a
DTITLE=Truong Vu - Uoc Mo Ke Ngheo
DYEAR=2003
DGENRE=
TTITLE0=Uoc mo ke ngheo
TTITLE1=Tien em theo chong
TTITLE2=Bui doi
TTITLE3=Con nho con thuong
TTITLE4=Gap lai co nhan
TTITLE5=La thu dau tien
TTITLE6=Tieng ca do ve dau
TTITLE7=Mua bay ngoai o
TTITLE8=Ngang trai
TTITLE9=Ngai tieng gan xa
EXTD=
EXTT0=
EXTT1=
EXTT2=
EXTT3=
EXTT4=
EXTT5=
EXTT6=
EXTT7=
EXTT8=
EXTT9=
PLAYORDER=
